<svg xmlns="http://www.w3.org/2000/svg" xmlns:xlink="http://www.w3.org/1999/xlink" width="500" zoomAndPan="magnify" viewBox="0 0 375 374.999991" height="500" preserveAspectRatio="xMidYMid meet" version="1.0"><path fill="#ff3131" d="M 187.507812 49.007812 C 111.027344 49.007812 49.015625 111.007812 49.015625 187.5 C 49.015625 243.5 82.257812 291.738281 130.085938 313.554688 L 130.164062 312.242188 L 130.835938 301.023438 L 131.507812 289.808594 L 132.210938 278.59375 L 132.910156 267.375 L 133.632812 256.160156 L 134.363281 244.941406 C 134.445312 243.761719 134.402344 242.582031 134.242188 241.410156 C 134.082031 240.238281 133.804688 239.09375 133.40625 237.976562 C 133.011719 236.859375 132.507812 235.796875 131.898438 234.785156 C 131.285156 233.769531 130.574219 232.828125 129.769531 231.960938 L 114.34375 215.304688 C 113.296875 214.179688 112.367188 212.964844 111.546875 211.660156 C 110.730469 210.359375 110.042969 208.992188 109.480469 207.5625 C 108.917969 206.128906 108.496094 204.660156 108.210938 203.148438 C 107.925781 201.640625 107.78125 200.113281 107.78125 198.578125 L 107.78125 144.023438 C 107.769531 143.664062 107.792969 143.308594 107.851562 142.953125 C 107.910156 142.597656 108 142.25 108.128906 141.914062 C 108.257812 141.578125 108.417969 141.257812 108.613281 140.953125 C 108.804688 140.648438 109.027344 140.367188 109.277344 140.109375 C 109.523438 139.847656 109.796875 139.617188 110.09375 139.414062 C 110.390625 139.207031 110.707031 139.035156 111.035156 138.894531 C 111.367188 138.753906 111.710938 138.648438 112.0625 138.574219 C 112.414062 138.503906 112.773438 138.46875 113.132812 138.46875 C 113.492188 138.46875 113.847656 138.503906 114.203125 138.574219 C 114.554688 138.648438 114.894531 138.753906 115.226562 138.894531 C 115.558594 139.035156 115.871094 139.207031 116.167969 139.414062 C 116.464844 139.617188 116.738281 139.847656 116.988281 140.109375 C 117.238281 140.367188 117.460938 140.648438 117.652344 140.953125 C 117.84375 141.257812 118.007812 141.578125 118.132812 141.914062 C 118.261719 142.25 118.355469 142.597656 118.414062 142.953125 C 118.472656 143.308594 118.496094 143.664062 118.480469 144.023438 L 118.480469 189.640625 C 118.480469 189.898438 118.507812 190.15625 118.558594 190.410156 C 118.609375 190.664062 118.683594 190.910156 118.785156 191.148438 C 118.886719 191.386719 119.007812 191.613281 119.152344 191.828125 C 119.300781 192.039062 119.464844 192.238281 119.648438 192.417969 C 119.835938 192.601562 120.035156 192.761719 120.253906 192.902344 C 120.46875 193.042969 120.699219 193.164062 120.9375 193.257812 C 121.179688 193.351562 121.429688 193.421875 121.683594 193.46875 C 121.9375 193.515625 122.195312 193.535156 122.453125 193.53125 C 124.59375 193.492188 126.28125 191.683594 126.28125 189.539062 L 126.28125 144.308594 C 126.28125 143.9375 126.320312 143.570312 126.390625 143.207031 C 126.464844 142.84375 126.570312 142.488281 126.714844 142.148438 C 126.855469 141.804688 127.027344 141.480469 127.234375 141.171875 C 127.441406 140.863281 127.675781 140.578125 127.9375 140.316406 C 128.199219 140.054688 128.484375 139.820312 128.792969 139.613281 C 129.101562 139.40625 129.425781 139.234375 129.769531 139.089844 C 130.113281 138.949219 130.464844 138.84375 130.828125 138.769531 C 131.191406 138.699219 131.558594 138.660156 131.929688 138.660156 C 132.300781 138.660156 132.667969 138.699219 133.03125 138.769531 C 133.394531 138.84375 133.75 138.949219 134.089844 139.089844 C 134.433594 139.234375 134.757812 139.40625 135.066406 139.613281 C 135.375 139.820312 135.660156 140.054688 135.921875 140.316406 C 136.183594 140.578125 136.417969 140.863281 136.625 141.171875 C 136.832031 141.480469 137.003906 141.804688 137.148438 142.148438 C 137.289062 142.488281 137.394531 142.84375 137.46875 143.207031 C 137.539062 143.570312 137.578125 143.9375 137.578125 144.308594 L 137.578125 189.628906 C 137.578125 189.886719 137.601562 190.144531 137.652344 190.398438 C 137.703125 190.652344 137.78125 190.898438 137.878906 191.136719 C 137.980469 191.375 138.101562 191.601562 138.246094 191.8125 C 138.390625 192.027344 138.558594 192.226562 138.742188 192.40625 C 138.925781 192.585938 139.125 192.75 139.34375 192.890625 C 139.558594 193.03125 139.789062 193.148438 140.027344 193.246094 C 140.269531 193.339844 140.515625 193.410156 140.769531 193.457031 C 141.023438 193.503906 141.28125 193.523438 141.539062 193.519531 C 143.679688 193.484375 145.371094 191.675781 145.371094 189.535156 L 145.371094 144.308594 C 145.371094 143.9375 145.410156 143.570312 145.480469 143.207031 C 145.554688 142.84375 145.660156 142.488281 145.800781 142.148438 C 145.945312 141.804688 146.117188 141.480469 146.324219 141.171875 C 146.53125 140.863281 146.765625 140.578125 147.027344 140.316406 C 147.289062 140.054688 147.574219 139.820312 147.882812 139.613281 C 148.191406 139.40625 148.515625 139.234375 148.859375 139.089844 C 149.203125 138.949219 149.554688 138.839844 149.917969 138.769531 C 150.28125 138.695312 150.648438 138.660156 151.019531 138.660156 C 151.390625 138.660156 151.757812 138.695312 152.121094 138.769531 C 152.484375 138.839844 152.839844 138.949219 153.179688 139.089844 C 153.523438 139.234375 153.847656 139.40625 154.15625 139.613281 C 154.464844 139.820312 154.75 140.054688 155.015625 140.316406 C 155.277344 140.578125 155.511719 140.863281 155.714844 141.171875 C 155.921875 141.480469 156.097656 141.804688 156.238281 142.148438 C 156.378906 142.488281 156.488281 142.84375 156.558594 143.207031 C 156.632812 143.570312 156.667969 143.9375 156.667969 144.308594 L 156.667969 189.628906 C 156.667969 189.890625 156.695312 190.144531 156.746094 190.398438 C 156.796875 190.652344 156.871094 190.898438 156.972656 191.140625 C 157.074219 191.378906 157.195312 191.605469 157.339844 191.816406 C 157.488281 192.03125 157.652344 192.230469 157.835938 192.410156 C 158.023438 192.59375 158.222656 192.753906 158.441406 192.894531 C 158.660156 193.035156 158.886719 193.152344 159.128906 193.25 C 159.371094 193.34375 159.617188 193.414062 159.871094 193.460938 C 160.128906 193.507812 160.382812 193.527344 160.644531 193.519531 C 162.785156 193.480469 164.464844 191.671875 164.464844 189.535156 L 164.464844 144.023438 C 164.453125 143.664062 164.472656 143.308594 164.53125 142.953125 C 164.589844 142.597656 164.683594 142.25 164.8125 141.914062 C 164.941406 141.578125 165.101562 141.257812 165.292969 140.953125 C 165.488281 140.648438 165.707031 140.367188 165.957031 140.109375 C 166.207031 139.847656 166.480469 139.617188 166.777344 139.414062 C 167.074219 139.207031 167.386719 139.035156 167.71875 138.894531 C 168.050781 138.753906 168.394531 138.648438 168.746094 138.574219 C 169.097656 138.503906 169.453125 138.46875 169.816406 138.46875 C 170.175781 138.46875 170.53125 138.503906 170.882812 138.574219 C 171.238281 138.648438 171.578125 138.753906 171.910156 138.894531 C 172.242188 139.035156 172.554688 139.207031 172.851562 139.414062 C 173.148438 139.617188 173.421875 139.847656 173.671875 140.109375 C 173.921875 140.367188 174.140625 140.648438 174.335938 140.953125 C 174.527344 141.257812 174.6875 141.578125 174.816406 141.914062 C 174.945312 142.25 175.039062 142.597656 175.097656 142.953125 C 175.15625 143.308594 175.179688 143.664062 175.164062 144.023438 L 175.164062 198.578125 C 175.164062 200.113281 175.023438 201.640625 174.738281 203.148438 C 174.453125 204.660156 174.027344 206.128906 173.46875 207.5625 C 172.90625 208.992188 172.214844 210.359375 171.398438 211.660156 C 170.582031 212.964844 169.648438 214.179688 168.605469 215.304688 L 153.167969 231.960938 C 151.675781 233.566406 150.53125 235.386719 149.730469 237.429688 C 148.933594 239.46875 148.53125 241.582031 148.53125 243.773438 C 148.53125 244.160156 148.546875 244.550781 148.570312 244.9375 L 149.300781 256.15625 L 150.027344 267.375 L 150.726562 278.59375 L 151.425781 289.804688 L 152.097656 301.023438 L 152.773438 312.242188 L 153.328125 321.734375 C 158.777344 323.109375 164.285156 324.152344 169.859375 324.859375 C 175.433594 325.570312 181.03125 325.941406 186.648438 325.976562 C 192.265625 326.011719 197.867188 325.707031 203.449219 325.066406 C 209.03125 324.421875 214.554688 323.445312 220.019531 322.136719 L 220.601562 312.242188 L 221.273438 301.023438 L 221.949219 289.804688 L 222.644531 278.59375 L 223.347656 267.375 L 224.078125 256.152344 L 224.808594 244.933594 C 224.890625 243.738281 224.808594 242.554688 224.558594 241.382812 C 224.308594 240.210938 223.902344 239.09375 223.339844 238.035156 C 222.777344 236.980469 222.078125 236.019531 221.246094 235.15625 C 220.414062 234.292969 219.480469 233.5625 218.441406 232.964844 C 205.617188 225.617188 196.597656 208.101562 196.597656 187.664062 C 196.597656 160.601562 212.40625 138.664062 231.910156 138.664062 C 251.414062 138.664062 267.226562 160.601562 267.226562 187.664062 C 267.226562 208.101562 258.203125 225.617188 245.382812 232.964844 C 244.410156 233.527344 243.523438 234.203125 242.730469 235 C 241.933594 235.796875 241.253906 236.679688 240.695312 237.65625 C 240.132812 238.628906 239.707031 239.660156 239.417969 240.75 C 239.128906 241.835938 238.984375 242.941406 238.988281 244.066406 C 238.988281 244.355469 238.988281 244.648438 239.015625 244.933594 L 239.746094 256.152344 L 240.472656 267.371094 L 241.171875 278.589844 L 241.871094 289.800781 L 243.21875 312.234375 L 243.335938 314.253906 C 292.019531 292.785156 326.003906 244.105469 326.003906 187.492188 C 326.003906 111.007812 263.988281 49.007812 187.507812 49.007812 Z M 187.507812 49.007812 " fill-opacity="1" fill-rule="nonzero"/><path fill="#ff3131" d="M 360.269531 114.503906 C 357.914062 108.953125 355.300781 103.527344 352.425781 98.222656 C 349.546875 92.921875 346.425781 87.773438 343.054688 82.769531 C 339.679688 77.769531 336.078125 72.941406 332.242188 68.289062 C 328.40625 63.632812 324.355469 59.175781 320.089844 54.910156 C 315.824219 50.644531 311.367188 46.59375 306.710938 42.757812 C 302.058594 38.921875 297.230469 35.320312 292.230469 31.949219 C 287.226562 28.574219 282.078125 25.453125 276.777344 22.574219 C 271.472656 19.699219 266.046875 17.085938 260.496094 14.730469 C 237.371094 4.949219 212.816406 -0.0078125 187.507812 -0.0078125 C 186.9375 -0.0078125 186.367188 0.046875 185.804688 0.160156 C 185.242188 0.273438 184.695312 0.4375 184.164062 0.65625 C 183.636719 0.875 183.132812 1.144531 182.65625 1.464844 C 182.179688 1.785156 181.738281 2.144531 181.332031 2.550781 C 180.925781 2.957031 180.5625 3.398438 180.246094 3.875 C 179.925781 4.351562 179.65625 4.855469 179.4375 5.386719 C 179.21875 5.917969 179.050781 6.460938 178.941406 7.023438 C 178.828125 7.585938 178.773438 8.15625 178.773438 8.730469 C 178.773438 9.304688 178.828125 9.871094 178.941406 10.433594 C 179.050781 10.996094 179.21875 11.542969 179.4375 12.074219 C 179.65625 12.601562 179.925781 13.105469 180.246094 13.582031 C 180.5625 14.0625 180.925781 14.503906 181.332031 14.90625 C 181.738281 15.3125 182.179688 15.675781 182.65625 15.996094 C 183.132812 16.3125 183.636719 16.582031 184.164062 16.800781 C 184.695312 17.023438 185.242188 17.1875 185.804688 17.300781 C 186.367188 17.410156 186.9375 17.46875 187.507812 17.46875 C 281.265625 17.46875 357.53125 93.738281 357.53125 187.492188 C 357.53125 232.90625 339.847656 275.605469 307.738281 307.714844 C 307.332031 308.121094 306.96875 308.5625 306.652344 309.039062 C 306.332031 309.515625 306.0625 310.019531 305.84375 310.550781 C 305.625 311.078125 305.457031 311.625 305.347656 312.1875 C 305.234375 312.75 305.179688 313.320312 305.179688 313.894531 C 305.179688 314.464844 305.234375 315.035156 305.347656 315.597656 C 305.457031 316.160156 305.625 316.707031 305.84375 317.238281 C 306.0625 317.765625 306.332031 318.269531 306.652344 318.746094 C 306.96875 319.226562 307.332031 319.667969 307.738281 320.070312 C 308.144531 320.476562 308.585938 320.839844 309.0625 321.160156 C 309.539062 321.476562 310.042969 321.746094 310.574219 321.964844 C 311.101562 322.183594 311.648438 322.351562 312.210938 322.464844 C 312.773438 322.574219 313.34375 322.632812 313.917969 322.632812 C 314.488281 322.632812 315.058594 322.574219 315.621094 322.464844 C 316.183594 322.351562 316.730469 322.183594 317.261719 321.964844 C 317.789062 321.746094 318.292969 321.476562 318.769531 321.160156 C 319.246094 320.839844 319.6875 320.476562 320.09375 320.070312 C 328.65625 311.53125 336.316406 302.25 343.078125 292.222656 C 349.835938 282.195312 355.570312 271.613281 360.273438 260.476562 C 370.054688 237.351562 375.011719 212.796875 375.011719 187.492188 C 375.011719 162.183594 370.050781 137.628906 360.269531 114.503906 Z M 360.269531 114.503906 " fill-opacity="1" fill-rule="nonzero"/><path fill="#ff3131" d="M 187.507812 357.511719 C 93.753906 357.511719 17.488281 281.242188 17.488281 187.492188 C 17.488281 142.074219 35.171875 99.375 67.28125 67.265625 C 67.6875 66.859375 68.050781 66.417969 68.367188 65.941406 C 68.6875 65.464844 68.957031 64.960938 69.175781 64.429688 C 69.394531 63.902344 69.5625 63.355469 69.671875 62.792969 C 69.785156 62.230469 69.839844 61.660156 69.839844 61.085938 C 69.839844 60.515625 69.785156 59.945312 69.671875 59.382812 C 69.5625 58.820312 69.394531 58.273438 69.175781 57.742188 C 68.957031 57.214844 68.6875 56.710938 68.367188 56.234375 C 68.050781 55.757812 67.6875 55.316406 67.28125 54.910156 C 66.875 54.503906 66.433594 54.140625 65.957031 53.820312 C 65.480469 53.503906 64.976562 53.234375 64.445312 53.015625 C 63.917969 52.796875 63.371094 52.628906 62.808594 52.515625 C 62.246094 52.40625 61.675781 52.347656 61.101562 52.347656 C 60.53125 52.347656 59.960938 52.40625 59.398438 52.515625 C 58.835938 52.628906 58.289062 52.796875 57.757812 53.015625 C 57.230469 53.234375 56.726562 53.503906 56.25 53.820312 C 55.769531 54.140625 55.332031 54.503906 54.925781 54.910156 C 46.363281 63.449219 38.703125 72.730469 31.941406 82.757812 C 25.183594 92.785156 19.449219 103.367188 14.746094 114.503906 C 4.964844 137.628906 0.0078125 162.183594 0.0078125 187.492188 C 0.0078125 212.796875 4.964844 237.351562 14.746094 260.476562 C 17.101562 266.027344 19.714844 271.457031 22.589844 276.757812 C 25.46875 282.058594 28.589844 287.207031 31.960938 292.210938 C 35.335938 297.210938 38.9375 302.039062 42.773438 306.691406 C 46.609375 311.347656 50.660156 315.804688 54.925781 320.070312 C 59.191406 324.335938 63.648438 328.386719 68.304688 332.222656 C 72.957031 336.058594 77.785156 339.660156 82.785156 343.035156 C 87.789062 346.40625 92.9375 349.527344 98.238281 352.40625 C 103.539062 355.28125 108.96875 357.894531 114.519531 360.25 C 137.644531 370.03125 162.199219 374.988281 187.503906 374.988281 C 188.078125 374.988281 188.648438 374.933594 189.210938 374.820312 C 189.773438 374.707031 190.320312 374.542969 190.847656 374.324219 C 191.378906 374.105469 191.882812 373.835938 192.359375 373.515625 C 192.835938 373.195312 193.277344 372.835938 193.683594 372.429688 C 194.089844 372.023438 194.453125 371.582031 194.769531 371.105469 C 195.089844 370.628906 195.359375 370.125 195.578125 369.59375 C 195.796875 369.066406 195.964844 368.519531 196.074219 367.957031 C 196.1875 367.394531 196.242188 366.824219 196.242188 366.25 C 196.242188 365.675781 196.1875 365.109375 196.074219 364.546875 C 195.964844 363.984375 195.796875 363.4375 195.578125 362.90625 C 195.359375 362.378906 195.089844 361.875 194.769531 361.398438 C 194.453125 360.917969 194.089844 360.476562 193.683594 360.074219 C 193.277344 359.667969 192.835938 359.304688 192.359375 358.984375 C 191.882812 358.667969 191.378906 358.398438 190.847656 358.179688 C 190.320312 357.957031 189.773438 357.792969 189.210938 357.679688 C 188.648438 357.570312 188.078125 357.511719 187.503906 357.511719 Z M 187.507812 357.511719 " fill-opacity="1" fill-rule="nonzero"/></svg>